<?xml version="1.0" standalone="no"?>
<!DOCTYPE svg PUBLIC "-//W3C//DTD SVG 20010904//EN"
 "http://www.w3.org/TR/2001/REC-SVG-20010904/DTD/svg10.dtd">
<svg version="1.0" xmlns="http://www.w3.org/2000/svg"
 width="512.000000pt" height="512.000000pt" viewBox="0 0 512.000000 512.000000"
 preserveAspectRatio="xMidYMid meet">

<g transform="translate(0.000000,512.000000) scale(0.100000,-0.100000)"
fill="#000000" stroke="none">
<path d="M2737 4570 c-138 -35 -247 -147 -282 -291 -20 -83 -631 -3248 -640
-3316 -27 -207 144 -407 359 -421 114 -7 240 45 311 130 71 84 65 57 405 1818
361 1864 343 1748 281 1874 -40 82 -120 156 -199 187 -64 24 -176 33 -235 19z"/>
<path d="M1383 3971 c-88 -23 -154 -74 -698 -541 -308 -265 -577 -502 -598
-528 -56 -71 -80 -142 -81 -237 0 -44 6 -98 13 -120 35 -103 58 -125 653 -625
658 -554 645 -545 798 -545 87 0 101 3 161 32 80 39 150 111 187 191 23 49 27
70 27 152 0 104 -13 150 -65 225 -17 25 -185 173 -402 355 -205 172 -379 318
-387 325 -11 11 56 72 371 343 212 181 394 342 406 357 12 15 34 53 49 84 25
50 28 67 28 156 0 88 -3 107 -27 157 -61 131 -183 215 -325 223 -43 2 -92 1
-110 -4z"/>
<path d="M3552 3964 c-110 -29 -201 -107 -250 -212 -24 -50 -27 -70 -27 -157
0 -108 16 -160 71 -232 14 -19 199 -183 410 -365 309 -265 383 -333 372 -343
-7 -7 -182 -154 -389 -328 -455 -382 -464 -393 -464 -577 0 -82 4 -103 27
-152 37 -80 107 -152 187 -191 60 -29 74 -32 161 -32 153 0 136 -11 791 539
602 505 631 533 661 636 7 25 13 79 12 120 -1 93 -27 165 -86 237 -39 47
-1063 933 -1160 1003 -51 37 -154 70 -217 69 -25 0 -70 -7 -99 -15z"/>
</g>
</svg>
